{"title":"Neighbors - Cattivi Vicini (2014) [XviD - Italian English Ac3 5.","uid":11170766,"size":1747361849,"categoryP":"video","categoryS":"movies","magnet":"?xt=urn:btih:963fb611b9dc0f23b9fa06e83a601cad53bb6b46&amp;dn=Neighbors+-+Cattivi+Vicini+%282014%29+%5BXviD+-+Italian+English+Ac3+5.&amp;tr=udp%3A%2F%2Ftracker.openbittorrent.com%3A80&amp;tr=udp%3A%2F%2Fopen.demonii.com%3A1337&amp;tr=udp%3A%2F%2Ftracker.coppersurfer.tk%3A6969&amp;tr=udp%3A%2F%2Fexodus.desync.com%3A6969","seeders":21,"leechers":6,"uploader":"robbyrs4","files":4,"time":1412699406,"description":"Neighbors - Cattivi Vicini (2014) [XviD - Italian English Ac3 5.1 - Sub Ita Eng] MIRCrew\n\nCattivi Vicini - Neighbors (2014) [XviD - Italian English Ac3 5.1 - Sub Ita Eng] MIRCrew\n\n\n\n[center][color=red][b][img]http://s19.postimg.org/mqmhlwtlf/Mircrew_original_red_skull.png[/img]\n\n[u]NO FOUND ONLY ORIGINAL RELEASE[/u]\n\nCattivi Vicini - Neighbors (2014)\n\n[img]http://s19.postimg.org/9pzzvobir/image.jpg[/img]  \n\n[URL=http://www.imdb.com/title/tt2004420/][IMG]http://www.userlogos.org/files/logos/Sucka/imdb_new.png[/IMG][/URL]  \n\n[img]http://imageshack.us/a/img534/6946/zcu.gif[/img]\n\nTitolo originale \tNeighbors\nLingua originale \tinglese\nPaese di produzione \tStati Uniti d'America\nAnno \t2014\nDurata \t96 min\nRapporto \t2,35 : 1\nGenere \tcommedia\nRegia \tNicholas Stoller\nSceneggiatura \tBrendan O'Brien, Andrew J. Cohen\nProduttore \tEvan Goldberg, Seth Rogen, James Weaver\nProduttore esecutivo \tBrian Bell, Andrew J. Cohen, Brendan O'Brien\nCasa di produzione \tPoint Grey Pictures\nDistribuzione (Italia) \tUniversal Pictures\nFotografia \tBrandon Trost\nMontaggio \tZene Baker\nEffetti speciali \tChristopher A. Suarez\nMusiche \tMichael Andrews\nScenografia \tJulie Berghoff\nCostumi \tLeesa Evans\n\n\n[img]http://imageshack.us/a/img4/8946/u96.gif[/img]\n\n\n    Seth Rogen: Mac Radner\n    Zac Efron: Teddy Sanders\n    Rose Byrne: Kelly Radner\n    Dave Franco: Pete Ragazolli\n    Christopher Mintz-Plasse: Scoonie\n    Lisa Kudrow: Carol Gladstone\n    Carla Gallo: Paula Faldt\n    Ali Cobrin: Whitney\n    Ike Barinholtz: Jimmy Blevins\n\nDoppiatori italiani\n\n    Oreste Baldini: Mac Radner\n    Andrea Mete: Teddy Sanders\n    Barbara De Bortoli: Kelly Rander\n    Davide Perino: Pete Ragazolli\n    Franco Mannella: Jimmy Blevins\n\n\n\n\n[img]http://imageshack.us/a/img844/6546/cupz.gif[/img]. \n\nMac e Kelly Radner vivono in un quartiere tranquillo e pacifico, fino all'arrivo di Teddy e del suo gruppo di amici, che sconvolgeranno la vita di Mac e Kelly, e dell'intero quartiere...........\n\n[img]http://imageshack.us/a/img202/6180/4e6.gif[/img]\n\nKelly and Mac are settling down in a quiet neighborhood with their newborn child, until the frat brothers move into the house next door. Teddy is the President, and Pete is his right hand man, and they're quick to accept friendship when Kelly and Mac introduce themselves as the neighbors. Night after night, Mac asks Teddy to lower the fraternity's noise, even accepting the invitation to the party one evening........\n &lt;a href=&quot;\nhttp://s19.postimg.org/xkt6u1h77/vlcsnap_2014_10_05_18h31m00s69.png&quot; rel=&quot;nofollow&quot; target=&quot;_NEW&quot;&gt;\nhttp://s19.postimg.org/xkt6u1h77/vlcsnap_2014_10_05_18h31m00s69.png&lt;/a&gt;\n &lt;a href=&quot;\nhttp://s19.postimg.org/6kfe5gswj/vlcsnap_2014_10_05_18h31m20s9.png&quot; rel=&quot;nofollow&quot; target=&quot;_NEW&quot;&gt;\nhttp://s19.postimg.org/6kfe5gswj/vlcsnap_2014_10_05_18h31m20s9.png&lt;/a&gt;\n &lt;a href=&quot;\nhttp://s19.postimg.org/cmn0vyhcj/vlcsnap_2014_10_05_18h32m10s250.png&quot; rel=&quot;nofollow&quot; target=&quot;_NEW&quot;&gt;\nhttp://s19.postimg.org/cmn0vyhcj/vlcsnap_2014_10_05_18h32m10s250.png&lt;/a&gt;\n\n\n\n[img]http://imageshack.us/a/img571/2166/an4p.gif[/img]\n\n\n[spoiler]\nGeneral\nComplete name                            : Cattivi Vicini - Neighbors (2014).ita.eng.sub.ita.eng.MIRCrewCattivi Vicini - Neighbors (2014).ita.eng.sub.ita.eng.MIRCrew.avi\nFormat                                   : AVI\nFormat/Info                              : Audio Video Interleave\nFile size                                : 1.63 GiB\nDuration                                 : 1h 36mn\nOverall bit rate                         : 2 409 Kbps\nWriting application                      : VirtualDubMod 1.5.4.1 (build 2178/release)\nWriting library                          : VirtualDubMod build 2178/release\n\nVideo\nID                                       : 0\nFormat                                   : MPEG-4 Visual\nFormat profile                           : Simple@L3\nFormat settings, BVOP                    : No\nFormat settings, QPel                    : No\nFormat settings, GMC                     : No warppoints\nFormat settings, Matrix                  : Default (H.263)\nCodec ID                                 : XVID\nCodec ID/Hint                            : XviD\nDuration                                 : 1h 36mn\nBit rate                                 : 1 499 Kbps\nWidth                                    : 720 pixels\nHeight                                   : 300 pixels\nDisplay aspect ratio                     : 2.40:1\nFrame rate                               : 23.976 fps\nColor space                              : YUV\nChroma subsampling                       : 4:2:0\nBit depth                                : 8 bits\nScan type                                : Progressive\nCompression mode                         : Lossy\nBits/(Pixel*Frame)                       : 0.289\nStream size                              : 1.01 GiB (62%)\nWriting library                          : XviD 65\n\nAudio #1\nID                                       : 1\nFormat                                   : AC-3\nFormat/Info                              : Audio Coding 3\nMode extension                           : CM (complete main)\nCodec ID                                 : 2000\nDuration                                 : 1h 36mn\nBit rate mode                            : Constant\nBit rate                                 : 448 Kbps\nChannel(s)                               : 6 channels\nChannel positions                        : Front: L C R, Side: L R, LFE\nSampling rate                            : 48.0 KHz\nBit depth                                : 16 bits\nCompression mode                         : Lossy\nStream size                              : 310 MiB (19%)\nAlignment                                : Split accross interleaves\nInterleave, duration                     : 42 ms (1.00 video frame)\nInterleave, preload duration             : 500 ms\n\nAudio #2\nID                                       : 2\nFormat                                   : AC-3\nFormat/Info                              : Audio Coding 3\nMode extension                           : CM (complete main)\nCodec ID                                 : 2000\nDuration                                 : 1h 36mn\nBit rate mode                            : Constant\nBit rate                                 : 448 Kbps\nChannel(s)                               : 6 channels\nChannel positions                        : Front: L C R, Side: L R, LFE\nSampling rate                            : 48.0 KHz\nBit depth                                : 16 bits\nCompression mode                         : Lossy\nStream size                              : 310 MiB (19%)\nAlignment                                : Split accross interleaves\nInterleave, duration                     : 42 ms (1.00 video frame)\nInterleave, preload duration             : 500 ms\n\n\n\n\n[/spoiler]\n\n[/color][/b][/center]","torrent":{"xt":"urn:btih:963fb611b9dc0f23b9fa06e83a601cad53bb6b46","amp;dn":"Neighbors+-+Cattivi+Vicini+%282014%29+%5BXviD+-+Italian+English+Ac3+5.","amp;tr":["udp%3A%2F%2Ftracker.openbittorrent.com%3A80","udp%3A%2F%2Fopen.demonii.com%3A1337","udp%3A%2F%2Ftracker.coppersurfer.tk%3A6969","udp%3A%2F%2Fexodus.desync.com%3A6969"],"infoHash":"963fb611b9dc0f23b9fa06e83a601cad53bb6b46","infoHashBuffer":{"type":"Buffer","data":[150,63,182,17,185,220,15,35,185,250,6,232,58,96,28,173,83,187,107,70]},"announce":[],"urlList":[]}}